<svg width="32" height="32" viewBox="0 0 32 32" fill="none" xmlns="http://www.w3.org/2000/svg">
<path fill-rule="evenodd" clip-rule="evenodd" d="M7 7C7 4.17157 7 2.75736 7.87868 1.87868C8.75736 1 10.1716 1 13 1H25C27.8284 1 29.2426 1 30.1213 1.87868C31 2.75736 31 4.17157 31 7V19C31 21.8284 31 23.2426 30.1213 24.1213C29.2426 25 27.8284 25 25 25C25 27.8284 25 29.2426 24.1213 30.1213C23.2426 31 21.8284 31 19 31H7C4.17157 31 2.75736 31 1.87868 30.1213C1 29.2426 1 27.8284 1 25V13C1 10.1716 1 8.75736 1.87868 7.87868C2.75736 7 4.17157 7 7 7ZM25 4H13C11.501 4 10.6785 4.00637 10.1079 4.08308L10.0861 4.08608L10.0831 4.10793C10.0064 4.6785 10 5.50098 10 7H19C21.8284 7 23.2426 7 24.1213 7.87868C25 8.75736 25 10.1716 25 13V22C26.499 22 27.3215 21.9936 27.8921 21.9169L27.9139 21.9139L27.9169 21.8921C27.9936 21.3215 28 20.499 28 19V7C28 5.50098 27.9936 4.6785 27.9169 4.10793L27.9139 4.08608L27.8921 4.08308C27.3215 4.00637 26.499 4 25 4ZM10.1442 3.79553L10.1452 3.79281C10.1452 3.79279 10.145 3.79327 10.1447 3.79427C10.1445 3.79462 10.1444 3.79504 10.1442 3.79553ZM9.79553 4.14421L9.79281 4.14521C9.79278 4.1452 9.79366 4.14485 9.79553 4.14421ZM4.10793 10.0831C4.6785 10.0064 5.50098 10 7 10H19C20.499 10 21.3215 10.0064 21.8921 10.0831L21.9139 10.0861L21.9169 10.1079C21.9936 10.6785 22 11.501 22 13V25C22 26.499 21.9936 27.3215 21.9169 27.8921L21.9139 27.9139L21.8921 27.9169C21.3215 27.9936 20.499 28 19 28H7C5.50098 28 4.6785 27.9936 4.10793 27.9169L4.08608 27.9139L4.08308 27.8921C4.00637 27.3215 4 26.499 4 25V13C4 11.501 4.00637 10.6785 4.08308 10.1079L4.08608 10.0861L4.10793 10.0831ZM4.14521 9.79281L4.14421 9.79553C4.14485 9.79366 4.1452 9.79278 4.14521 9.79281ZM3.79281 10.1452C3.7923 10.1454 3.79279 10.1452 3.79281 10.1452V10.1452Z" fill="#2C3953"/>
</svg>
