<svg width="32" height="32" viewBox="0 0 32 32" fill="none" xmlns="http://www.w3.org/2000/svg">
<path fill-rule="evenodd" clip-rule="evenodd" d="M21 5H11V7H21V5ZM24 7V5C24 3.34315 22.6569 2 21 2H11C9.34315 2 8 3.34315 8 5V7H2.5C1.67157 7 1 7.67157 1 8.5C1 9.32843 1.67157 10 2.5 10H3.80765L5.69348 27.3439C5.86814 28.8576 7.14989 30 8.6737 30H23.3262C24.85 30 26.1318 28.8576 26.3064 27.3439L28.1923 10H29.5C30.3284 10 31 9.32843 31 8.5C31 7.67157 30.3284 7 29.5 7H24ZM25.1724 10L23.3262 27H8.6737L6.82755 10H25.1724Z" fill="#C3375E"/>
</svg>
