<svg width="32" height="33" viewBox="0 0 32 33" fill="none" xmlns="http://www.w3.org/2000/svg">
<path fill-rule="evenodd" clip-rule="evenodd" d="M3.5 19C2.67157 19 2 19.6716 2 20.5V25C2 27.8284 2 29.2426 2.87868 30.1213C3.75736 31 5.17157 31 8 31H24C26.8284 31 28.2426 31 29.1213 30.1213C30 29.2426 30 27.8284 30 25V20.5C30 19.6716 29.3284 19 28.5 19C27.6716 19 27 19.6716 27 20.5V25C27 26.499 26.9936 27.3215 26.9169 27.8921L26.9139 27.9139L26.8921 27.9169C26.3215 27.9936 25.499 28 24 28H8C6.50098 28 5.6785 27.9936 5.10793 27.9169L5.08608 27.9139L5.08308 27.8921C5.00637 27.3215 5 26.499 5 25V20.5C5 19.6716 4.32843 19 3.5 19Z" fill="#2C3953"/>
<path fill-rule="evenodd" clip-rule="evenodd" d="M16 0.878662L23.0607 7.93932C23.6464 8.52511 23.6464 9.47486 23.0607 10.0606C22.4749 10.6464 21.5251 10.6464 20.9393 10.0606L17.5 6.6213V22C17.5 22.8284 16.8284 23.5 16 23.5C15.1716 23.5 14.5 22.8284 14.5 22V6.6213L11.0607 10.0606C10.4749 10.6464 9.52513 10.6464 8.93934 10.0606C8.35355 9.47486 8.35355 8.52511 8.93934 7.93932L16 0.878662Z" fill="#2C3953"/>
</svg>
