<svg width="32" height="32" viewBox="0 0 32 32" fill="none" xmlns="http://www.w3.org/2000/svg">
<path fill-rule="evenodd" clip-rule="evenodd" d="M3.5 18C2.67157 18 2 18.6716 2 19.5V24C2 26.8284 2 28.2426 2.87868 29.1213C3.75736 30 5.17157 30 8 30H24C26.8284 30 28.2426 30 29.1213 29.1213C30 28.2426 30 26.8284 30 24V19.5C30 18.6716 29.3284 18 28.5 18C27.6716 18 27 18.6716 27 19.5V24C27 25.499 26.9936 26.3215 26.9169 26.8921L26.9139 26.9139L26.8921 26.9169C26.3215 26.9936 25.499 27 24 27H8C6.50098 27 5.6785 26.9936 5.10793 26.9169L5.08608 26.9139L5.08308 26.8921C5.00637 26.3215 5 25.499 5 24V19.5C5 18.6716 4.32843 18 3.5 18Z" fill="#2C3953"/>
<path fill-rule="evenodd" clip-rule="evenodd" d="M16 23.1213L23.0607 16.0607C23.6464 15.4749 23.6464 14.5251 23.0607 13.9393C22.4749 13.3536 21.5251 13.3536 20.9393 13.9393L17.5 17.3787V2C17.5 1.17157 16.8284 0.5 16 0.5C15.1716 0.5 14.5 1.17157 14.5 2V17.3787L11.0607 13.9393C10.4749 13.3536 9.52513 13.3536 8.93934 13.9393C8.35355 14.5251 8.35355 15.4749 8.93934 16.0607L16 23.1213Z" fill="#2C3953"/>
</svg>
