<svg width="1734" height="489" viewBox="0 0 1734 489" fill="none" xmlns="http://www.w3.org/2000/svg">
<path fill-rule="evenodd" clip-rule="evenodd" d="M403.961 126.177L451.576 114.571C382.057 3.61592 236.589 -33.2096 122.27 32.7921C5.34739 100.298 -34.7134 249.807 32.7921 366.73C100.298 483.653 249.807 523.713 366.73 456.208C481.048 390.206 521.89 245.814 460.559 130.132L426.701 165.564C419.16 173.455 416.162 184.646 418.747 195.25L435.503 263.994C436.213 266.906 432.683 268.944 430.516 266.873L379.36 217.99C371.469 210.449 360.278 207.451 349.674 210.036L280.93 226.792C278.017 227.502 275.98 223.972 278.051 221.805L326.934 170.649C334.474 162.758 337.473 151.567 334.888 140.963L318.132 72.2191C317.422 69.3066 320.952 67.2686 323.119 69.3397L374.275 118.223C382.166 125.764 393.357 128.762 403.961 126.177ZM1006.01 87H1054.02V126H1006.01V87ZM1130.02 126V87H1082.02V126H1130.02ZM617 154V337H665.002V289L675.002 273L703.003 337H757.005L705.003 234L751.005 154H700.003L665.002 224V154H617ZM825.007 337V154H873.009V298H931.011V337H825.007ZM1006.01 154H1053.02V286C1053.02 294.889 1054.46 300.923 1057.02 304C1059.58 306.906 1062.58 308 1067.02 308C1071.45 308 1075.46 306.906 1078.02 304C1080.58 300.923 1082.02 294.889 1082.02 286V154H1129.02V274C1129.02 286.82 1127.75 297.453 1125.02 306C1122.29 314.547 1118.31 321.872 1113.02 327C1107.9 332.128 1101.7 335.12 1094.02 337C1086.34 338.88 1077.09 340 1067.02 340C1057.12 340 1048.87 338.88 1041.02 337C1033.33 335.12 1026.31 332.128 1021.01 327C1015.89 321.872 1012.74 314.547 1010.01 306C1007.28 297.453 1006.01 286.82 1006.01 274V154ZM1212.02 337V154H1260.02V224L1295.02 154H1346.03L1300.02 234L1352.03 337H1298.02L1270.02 273L1260.02 289V337H1212.02ZM1445.03 337L1406.03 154H1456.03L1475.03 268H1476.03L1495.03 154H1546.03L1506.03 337H1445.03ZM1734 336.936L1695 153.936H1634L1593.99 336.936H1645L1664 222.936H1665L1684 336.936H1734Z" fill="#D56C89"/>
</svg>
