<svg width="173" height="54" viewBox="0 0 173 54" fill="none" xmlns="http://www.w3.org/2000/svg">
<path d="M102.75 10.4062H107.25V14.9062H102.75V10.4062Z" fill="#D56C89"/>
<path d="M110.25 10.4062H114.75V14.9062H110.25V10.4062Z" fill="#D56C89"/>
<path d="M107.25 17.9062H102.75V30.6562C102.75 33.97 105.436 36.6562 108.75 36.6562C112.064 36.6562 114.75 33.97 114.75 30.6562V17.9062H110.25V30.6562C110.25 31.4847 109.578 32.1563 108.75 32.1563C107.922 32.1563 107.25 31.4847 107.25 30.6562V17.9062Z" fill="#D56C89"/>
<path fill-rule="evenodd" clip-rule="evenodd" d="M90 17.9062H85.5V31.4062V35.9062H90H96.75V31.4062H90V17.9062Z" fill="#D56C89"/>
<path fill-rule="evenodd" clip-rule="evenodd" d="M126.75 17.9062V24.0426L130.5 17.9062H135L130.714 24.9192L135.75 35.9062H131.25L128.143 29.127L126.75 31.4062V35.9062H122.25V31.4062V17.9062H126.75Z" fill="#D56C89"/>
<path fill-rule="evenodd" clip-rule="evenodd" d="M70.5 17.9062V24.0426L74.25 17.9062H78.75L74.4643 24.9192L79.5 35.9062H75L71.8929 29.127L70.5 31.4062V35.9062H66V31.4062V17.9062H70.5Z" fill="#D56C89"/>
<path fill-rule="evenodd" clip-rule="evenodd" d="M140.25 17.9062H144.75L147 28.7062L149.25 17.9062H153.75L150 35.9062H148.5H145.5H144L140.25 17.9062Z" fill="#D56C89"/>
<path fill-rule="evenodd" clip-rule="evenodd" d="M159 35.9062H163.5L165.75 25.1063L168 35.9062H172.5L168.75 17.9062H167.25H164.25H162.75L159 35.9062Z" fill="#D56C89"/>
<path fill-rule="evenodd" clip-rule="evenodd" d="M44.6092 13.9337L49.8672 12.652C42.1904 0.399304 26.1264 -3.66732 13.5023 3.62122C0.590509 11.0758 -3.83338 27.586 3.62122 40.4977C11.0758 53.4095 27.586 57.8334 40.4977 50.3788C53.1219 43.0902 57.6321 27.1451 50.8593 14.3704L47.1204 18.2832C46.2877 19.1546 45.9565 20.3903 46.242 21.5613L48.0923 29.1527C48.1707 29.4743 47.7809 29.6994 47.5416 29.4707L41.8925 24.0725C41.0211 23.2398 39.7853 22.9087 38.6143 23.1941L31.0229 25.0445C30.7013 25.1229 30.4763 24.7331 30.705 24.4938L36.1031 18.8447C36.9358 17.9732 37.2669 16.7375 36.9815 15.5665L35.1311 7.97511C35.0527 7.65349 35.4425 7.42844 35.6819 7.65714L41.331 13.0553C42.2024 13.888 43.4382 14.2191 44.6092 13.9337Z" fill="#D56C89"/>
</svg>
