<svg width="32" height="32" viewBox="0 0 32 32" fill="none" xmlns="http://www.w3.org/2000/svg">
<path fill-rule="evenodd" clip-rule="evenodd" d="M13 0C11.8954 0 11 0.89543 11 2V3H10C7.17157 3 5.75736 3 4.87868 3.87868C4 4.75736 4 6.17157 4 9L4 25C4 27.8284 4 29.2426 4.87868 30.1213C5.75736 31 7.17157 31 10 31H22C24.8284 31 26.2426 31 27.1213 30.1213C28 29.2426 28 27.8284 28 25L28 9C28 6.17157 28 4.75736 27.1213 3.87868C26.2426 3 24.8284 3 22 3H21V2C21 0.895431 20.1046 0 19 0H13ZM11 6V7C11 8.10457 11.8954 9 13 9H19C20.1046 9 21 8.10457 21 7V6H22C23.499 6 24.3215 6.00637 24.8921 6.08308L24.9139 6.08608L24.9169 6.10793C24.9936 6.6785 25 7.50098 25 9L25 25C25 26.499 24.9936 27.3215 24.9169 27.8921L24.9139 27.9139L24.8921 27.9169C24.3215 27.9936 23.499 28 22 28H10C8.50098 28 7.6785 27.9936 7.10793 27.9169L7.08608 27.9139L7.08308 27.8921C7.00637 27.3215 7 26.499 7 25L7 9C7 7.50098 7.00637 6.6785 7.08309 6.10793L7.08608 6.08608L7.10793 6.08308C7.67851 6.00637 8.50098 6 10 6H11Z" fill="#2C3953"/>
</svg>
